# xmcd
# 
# Track frame offsets:
#     150
#     26469
#     50031
#     92916
#     110189
#     140650
#     166228
#     184163
# 
# Disc length: 2745
# 
# Revision: 3
# Processed by: cddbd v1.5.2PL0 Copyright (c) Steve Scherf et al.
# Submitted via: fre:ac v1.0.27
# 
DISCID=710ab708
DTITLE=Benedikt Jahnel Trio - The Invariant
DYEAR=2017
DGENRE=Jazz
TTITLE0=Further Consequences
TTITLE1=The Cirquit
TTITLE2=Mirrors
TTITLE3=Mono Lake
TTITLE4=Part of the Game
TTITLE5=For the Encore
TTITLE6=Interpolation One
TTITLE7=En passant
EXTD=YEAR: 2017
EXTT0=
EXTT1=
EXTT2=
EXTT3=
EXTT4=
EXTT5=
EXTT6=
EXTT7=
PLAYORDER=
